<?xml version="1.0" encoding="UTF-8" standalone="no"?>
<!-- Created with Inkscape (http://www.inkscape.org/) -->

<svg
   version="1.1"
   id="svg2"
   width="600"
   height="600"
   viewBox="0 0 600 600"
   xmlns="http://www.w3.org/2000/svg"
   xmlns:svg="http://www.w3.org/2000/svg">
  <defs
     id="defs6" />
  <g
     id="g8">
    <path
       style="fill:#5f5f5f16"
       d="M 329.28231,588.60182 C 288.6951,582.75259 272.68491,580.08295 271.69894,579 c -1.01068,-1.11009 -2.32921,-15.40695 -5.07238,-55 -2.03869,-29.425 -3.68867,-54.72893 -3.66663,-56.23095 0.0303,-2.06252 0.65197,-2.88452 2.54007,-3.35841 l 2.5,-0.62746 v -27.92297 c 0,-21.4632 0.28918,-28.01343 1.25,-28.31396 0.6875,-0.21504 5.58226,-0.67401 10.87725,-1.01994 C 292.2094,405.73697 293,406.29638 293,415.63479 v 6.49193 l 3.25,-0.31336 c 2.39502,-0.23092 3.3017,-0.8395 3.44651,-2.31336 0.10808,-1.1 0.47929,-5.01788 0.82492,-8.70639 0.47922,-5.11421 1.03783,-6.83634 2.3529,-7.25373 1.85657,-0.58925 22.69807,2.07781 24.38525,3.12055 0.64573,0.39908 0.79097,3.84663 0.39629,9.40691 l -0.62301,8.77695 2.73357,0.91634 c 2.72051,0.91197 2.73835,0.88725 3.73357,-5.17214 l 1,-6.08849 10,0.25578 c 12.68536,0.32446 13.59097,1.0884 12.34547,10.41414 -0.46498,3.48154 -0.95793,7.23008 -1.09544,8.33008 -0.18947,1.51561 0.416,2.07664 2.49997,2.31642 1.5125,0.17403 2.75,-0.1309 2.75,-0.67764 0,-1.53313 1.98628,-16.3702 2.51393,-18.77848 0.68771,-3.13881 2.37502,-3.38888 12.15458,-1.80145 4.85732,0.78845 9.15316,1.43525 9.54631,1.43734 2.04479,0.0109 2.49725,4.01151 1.30104,11.50381 -0.70249,4.4 -1.21845,8.04786 -1.14656,8.10636 0.0719,0.0585 1.55129,0.37637 3.28758,0.70637 l 3.15687,0.60002 0.62725,-6.20637 c 1.33348,-13.1943 1.77436,-15.64023 3.00296,-16.65987 1.49486,-1.24062 21.47626,0.49585 22.99223,1.99813 0.83332,0.8258 -1.6211,24.63899 -3.13903,30.45536 -1.11907,4.28805 1.52364,-0.2435 4.21657,-7.2303 1.74718,-4.53305 3.47797,-7.44968 4.63959,-7.81836 1.93257,-0.61338 15.55342,6.28545 17.8331,9.0323 1.53112,1.84488 1.45992,2.05058 -8.97934,25.94148 -6.80257,15.56809 -8.06879,19.24642 -7.13826,20.73643 0.62215,0.99622 1.13118,2.59726 1.13118,3.55787 0,0.96061 -3.6026,11.42922 -8.00577,23.26357 -4.40318,11.83436 -12.91845,34.78876 -18.92283,51.00979 -7.00542,18.92536 -11.57174,29.89016 -12.74423,30.60182 -1.40936,0.85544 -14.68203,-0.74355 -58.04486,-6.99278 z M 386.68356,579.25 c 3.05365,-8.48938 29.46084,-79.98009 30.84316,-83.5 0.62012,-1.57905 -0.0803,-1.7447 -7.16973,-1.6957 l -7.85699,0.0543 -3,4.67556 c -12.96575,20.20738 -58.16337,24.20014 -91.20793,8.05732 -6.61332,-3.23072 -10.55327,-6.03548 -15.89916,-11.31827 -6.72032,-6.64098 -8.11375,-9.00416 -9.77173,-16.57229 -0.44394,-2.02648 -1.63015,-2.89182 -5.78575,-4.22073 -2.87503,-0.91939 -5.42424,-1.47471 -5.66492,-1.23403 -0.46331,0.46332 6.49974,99.56156 7.02323,99.95461 0.57021,0.42815 99.28329,14.38498 102.32434,14.46742 2.90484,0.0788 3.13617,-0.24649 6.16548,-8.66818 z m -35.32337,-73.5 c 0.32053,-1.7875 2.16628,-14.95 4.10168,-29.25 1.9354,-14.3 3.78778,-27.6875 4.11641,-29.75 0.58202,-3.65272 0.51741,-3.75 -2.49038,-3.75 -1.83211,0 -3.0879,0.51729 -3.0879,1.27198 0,0.69959 -1.79683,14.31209 -3.99296,30.25 -4.79519,34.8 -4.78007,34.47802 -1.61833,34.47802 1.90874,0 2.50581,-0.65303 2.97148,-3.25 z m 14.12959,2 c 0.95284,-2.7893 12.34619,-84.2064 11.88752,-84.94853 C 377.10487,422.36066 375.5671,422 373.96004,422 c -2.21348,0 -3.04469,0.54554 -3.42822,2.25 C 369.9743,426.72766 359,506.44872 359,508.02104 c 0,1.443 5.98971,1.19284 6.48978,-0.27104 z M 338,506.69341 c 0,-0.71862 2.475,-19.39936 5.5,-41.51275 3.025,-22.1134 5.5,-40.87543 5.5,-41.69342 C 349,422.41879 347.87364,422 345,422 c -2.2,0 -4,0.22478 -4,0.4995 0,0.27473 -2.475,18.90956 -5.5,41.41073 -3.025,22.50117 -5.5,41.37151 -5.5,41.93408 0,0.88891 1.73637,1.4049 6.75,2.00586 0.6875,0.0824 1.25,-0.43813 1.25,-1.15676 z m 44.17825,-3.49557 c 0.75763,-0.77953 9.24163,-58.12022 8.67896,-58.65843 -0.19646,-0.18793 -2.11956,-0.49867 -4.27354,-0.69055 L 382.66734,443.5 378.37116,473 c -2.3629,16.225 -4.31306,30.51854 -4.33367,31.76342 -0.0369,2.22837 0.0206,2.23918 3.71251,0.69784 2.0625,-0.86107 4.05521,-1.87961 4.42825,-2.26342 z M 325.81926,478.75 c 1.81889,-13.8875 3.8879,-29.44863 4.59781,-34.58029 l 1.29075,-9.3303 -2.4926,-0.94768 c -1.37093,-0.52123 -2.68388,-0.7564 -2.91767,-0.52261 -0.4932,0.4932 -10.29755,64.17151 -10.29755,66.8816 0,1.62544 2.82569,3.51702 5.50609,3.68589 0.56896,0.0359 2.44297,-10.90736 4.31317,-25.18661 z M 313.87369,462 c 2.82312,-18.975 5.41882,-37.73827 5.76822,-41.69616 0.7104,-8.04708 1.25128,-7.45244 -7.89191,-8.67619 l -3.75,-0.50191 -0.061,5.18713 c -0.0335,2.85292 -1.04881,21.77596 -2.25619,42.0512 -2.18103,36.6257 -2.18252,36.87297 -0.22977,38.24073 1.081,0.75716 2.26296,1.04333 2.62657,0.63593 0.36361,-0.4074 2.97093,-16.26573 5.79404,-35.24073 z m 85.60681,24 c 1.38573,0 2.52297,-0.3375 2.52722,-0.75 0.004,-0.4125 1.80424,-14.19007 4,-30.61682 C 408.20347,438.20643 410,424.195 410,423.49668 c 0,-1.34799 -6.03419,-2.72717 -7.17279,-1.63942 -0.7192,0.68707 -10.88296,69.46222 -10.74528,72.71005 0.0467,1.10229 1.1125,-0.32302 2.48051,-3.31731 1.96888,-4.3095 2.84992,-5.25 4.91806,-5.25 z M 297.97201,458.78557 c 0.94039,-15.55706 1.52984,-28.62307 1.30988,-29.03557 -0.21996,-0.4125 -1.67458,-0.75 -3.2325,-0.75 -2.11073,0 -2.97027,0.57339 -3.37288,2.25 -0.29717,1.2375 -0.66596,13.32149 -0.81953,26.85332 -0.2525,22.24903 -0.10784,24.86488 1.5118,27.33676 0.98507,1.5034 2.03906,2.48541 2.34222,2.18225 0.30316,-0.30316 1.32061,-13.2797 2.26101,-28.83676 z m 127.23164,6.31995 C 430.04164,453.88856 434,444.56262 434,444.3812 c 0,-0.95328 -6.33912,-3.42667 -6.96171,-2.7163 -0.40254,0.45931 -2.2299,4.6601 -4.06078,9.3351 -1.83089,4.675 -5.49983,13.17519 -8.1532,18.88932 C 412.17094,475.60344 410,481.59446 410,483.20268 c 0,2.68878 0.25776,2.89883 3.20365,2.61068 3.15527,-0.30863 3.3365,-0.62136 12,-20.70784 z M 284.34011,453.25 c 0.35927,-8.6625 0.65473,-21.06216 0.65656,-27.55479 l 0.003,-11.80479 -4.75,0.30479 -4.75,0.30479 -0.28176,24 c -0.15497,13.2 -0.0508,24.945 0.2314,26.10001 0.4259,1.74288 3.79134,3.63517 7.6438,4.2979 0.32639,0.0562 0.88739,-6.98541 1.24667,-15.64791 z M 78.231035,593.95585 C 66.958663,591.93443 59.206642,587.06242 55.533109,579.6906 54.139899,576.89479 53,573.22942 53,571.54534 c 0,-3.00751 -0.153783,-3.10173 -8.645318,-5.29688 -16.041857,-4.14698 -23.8035,-9.26702 -28.15998,-18.57599 -3.262905,-6.97221 -3.600708,-13.19106 -1.150071,-21.17247 1.776142,-5.78467 3.055687,-7.88438 7.369845,-12.09382 8.997739,-8.77932 19.003857,-10.51937 33.207879,-5.77482 5.797709,1.93661 10.694949,2.76175 18.548029,3.12517 16.297057,0.7542 20.27818,-0.0376 29.461016,-5.85942 4.32773,-2.74373 13.35135,-7.69792 20.05248,-11.0093 12.70516,-6.27828 16.43601,-9.36793 23.20048,-19.21316 4.66315,-6.7869 9.69415,-18.06095 11.70414,-26.22803 2.20869,-8.97439 4.37046,-13.20687 9.08646,-17.79014 14.3549,-13.95092 37.55397,-10.12462 46.29749,7.63599 2.54837,5.17647 3.15048,7.63066 3.14177,12.80564 -0.01,5.92391 -3.64917,21.29591 -6.14622,25.96168 -1.60899,3.00644 -1.06633,4.31983 2.92398,7.07678 5.02272,3.47025 9.10802,11.58492 9.10802,18.09132 0,6.13015 -3.14971,15.56039 -7.77291,23.27211 -1.97837,3.3 -8.80129,11.21215 -15.16206,17.58256 -22.80663,22.8412 -56.79061,41.26314 -88.51257,47.98065 -10.94283,2.31728 -26.139924,3.18047 -33.321425,1.89264 z m 28.801715,-9.52155 c 28.71958,-5.44801 63.27649,-23.33856 84.80396,-43.90409 23.42015,-22.37363 29.16478,-41.6131 14.90772,-49.92777 C 181.48238,475.86971 112.86839,500.59685 79,536.63905 c -11.147104,11.86257 -18,24.05321 -18,32.02024 0,6.98138 6.117744,13.73263 14.826373,16.36167 4.596847,1.38773 22.580425,1.04966 31.206377,-0.58666 z M 81,556 c -1.1,-1.1 -2.0042,-2.5625 -2.009333,-3.25 -0.0051,-0.6875 4.897216,-6.03453 10.89411,-11.88229 21.842253,-21.29907 50.240893,-36.63625 76.433003,-41.27898 15.26768,-2.7063 17.30822,-2.81988 19.06682,-1.06127 4.07468,4.07468 0.86468,6.99285 -8.63956,7.8541 -15.27,1.38374 -35.28207,8.29381 -51.24504,17.69468 -11.76922,6.93109 -19.42855,12.8541 -31.011048,23.98106 C 88.796579,553.52578 83.882868,558 83.569592,558 83.256316,558 82.1,557.1 81,556 Z m -23.755075,-3.25 c 4.255777,-8.89951 10.530098,-17.30647 18.936518,-25.37304 l 6.381009,-6.12303 -8.531226,-0.65136 c -8.206672,-0.62658 -12.429319,-1.49063 -25.598815,-5.23807 -5.356326,-1.52417 -6.640422,-1.56618 -10.954277,-0.35838 -9.952809,2.78662 -16.274229,12.35696 -15.244003,23.07873 0.940359,9.7865 8.113848,16.00182 22.956469,19.89017 4.02017,1.05317 7.596939,1.93963 7.948375,1.96992 0.351437,0.0303 2.199114,-3.20744 4.10595,-7.19494 z M 167,480.00597 c 8.49007,-1.75819 12.83899,-2.09219 22.71906,-1.74486 l 12.21906,0.42957 3.25565,-9.59534 c 4.50869,-13.2884 4.60422,-22.08019 0.30623,-28.18243 -5.54873,-7.87803 -17.01092,-11.23323 -25.81234,-7.55577 -7.26246,3.03445 -9.68741,6.937 -14.69113,23.64286 -2.50482,8.36283 -5.77094,15.32 -10.27872,21.89481 -3.00803,4.38734 -3.00908,4.39386 -0.61548,3.84019 1.31872,-0.30503 7.12267,-1.5331 12.89767,-2.72903 z m 324.73447,68.97131 C 481.11766,546.29178 472.04774,537.67984 468,526.44126 c -2.20622,-6.12558 -2.49045,-8.46891 -2.41876,-19.94126 0.0692,-11.07999 0.47971,-14.32924 2.77918,-22 6.09712,-20.33926 16.70344,-37.86716 32.07086,-53 23.56578,-23.20605 49.77825,-30.63438 67.88497,-19.23787 16.81918,10.58612 21.47908,37.31123 11.45929,65.72038 -11.58832,32.85636 -36.17489,59.65879 -63.34118,69.04978 -6.82902,2.36069 -19.20404,3.33516 -24.69989,1.94499 z m 25.32895,-11.50397 c 10.03841,-4.22511 16.73511,-9.02602 26.99474,-19.35269 19.08136,-19.20606 30.45976,-42.48376 31.6693,-64.7884 0.56546,-10.42745 -0.30333,-16.44968 -3.40203,-23.58222 -1.88964,-4.34952 -2.48592,-4.58254 -3.8383,-1.5 -0.69655,1.58768 -2.9005,2.8653 -7.48713,4.34025 -5.46914,1.75876 -6.54716,2.48071 -6.79733,4.55218 -0.36798,3.04682 1.80593,5.02712 8.09634,7.37528 6.56649,2.45123 9.0678,5.7846 8.23874,10.9794 -1.16269,7.28531 -4.71015,10.574 -15.81847,14.66456 -3.17939,1.17079 -5.94101,2.40087 -6.13692,2.73352 -0.19592,0.33265 0.98908,3.52981 2.63334,7.10481 1.64425,3.575 3.2171,7.89995 3.49521,9.61099 0.7251,4.46107 -2.81174,11.8575 -6.89288,14.41475 -2.93057,1.8363 -4.27893,2.0043 -11.54668,1.43868 l -8.22866,-0.6404 1.09894,3.15242 c 1.30495,3.74337 0.4017,12.0722 -1.76324,16.25872 -1.40012,2.70753 -6.52057,5.76484 -9.6551,5.76484 -0.73752,0 -3.95649,-1.575 -7.15327,-3.5 -9.54105,-5.74532 -11.78156,-4.44905 -12.57689,7.27649 l -0.50687,7.47282 6.62188,-0.55516 c 3.77742,-0.31668 9.34242,-1.70021 12.95528,-3.22084 z m -28.03239,-7.05185 c 0.66296,-7.39267 2.86106,-11.57362 7.63637,-14.52492 5.26809,-3.25586 9.14841,-2.93187 16.00053,1.33596 3.41969,2.12995 6.20638,3.26543 6.73699,2.74508 0.49771,-0.48809 1.1751,-5.44573 1.50531,-11.01699 0.77191,-13.02381 1.15626,-13.38508 13.27105,-12.47403 8.52502,0.64108 8.71138,0.60689 10.35379,-1.89974 1.82651,-2.7876 1.85549,-2.65005 -3.03226,-14.38833 -4.25647,-10.22219 -2.14356,-13.68648 11.66835,-19.13119 3.11914,-1.22957 6.424,-3.06746 7.34413,-4.08419 1.90398,-2.10388 1.9464,-2.06273 -6.45675,-6.26305 -5.91524,-2.95673 -8.28814,-6.44356 -8.82976,-12.97479 -0.60384,-7.28155 2.44618,-11.08152 10.30639,-12.84055 3.00566,-0.67264 5.46483,-1.3552 5.46483,-1.5168 0,-0.1616 -0.49962,-1.39037 -1.11027,-2.7306 -3.38037,-7.4191 -20.85145,-5.81089 -36.43825,3.35414 -7.76072,4.5633 -25.87365,22.60133 -31.65151,31.52062 -6.67861,10.30977 -11.43733,20.24277 -14.4585,30.1796 -2.25198,7.40692 -2.6853,10.75611 -2.75672,21.30717 -0.0827,12.21553 -0.005,12.68103 3.2092,19.212 3.22545,6.55394 7.47454,11.17491 9.62518,10.46757 0.59448,-0.19552 1.31983,-3.02015 1.6119,-6.27696 z m -3.62604,-32.52981 c -1.44537,-1.59967 -1.85844,-3.41252 -1.71207,-7.5138 0.36287,-10.16734 12.4731,-32.07076 25.25362,-45.67547 9.61654,-10.23669 16.66522,-13.09062 21.1802,-8.57564 6.5971,6.5971 -5.46612,34.33485 -23.15706,53.24652 -9.48886,10.14362 -17.30613,13.23156 -21.56469,8.51839 z m 18.99892,-19.21195 c 6.30721,-7.53417 13.71564,-19.90457 16.98155,-28.35537 1.42149,-3.67822 2.44839,-6.82382 2.28198,-6.99022 -0.78631,-0.78631 -12.9778,12.47618 -17.55454,19.09667 -4.86046,7.03091 -12.10271,21.09179 -13.68375,26.56713 -0.68372,2.3678 -0.51753,2.31571 3.19051,-1 2.15149,-1.92385 6.10441,-6.11705 8.78425,-9.31821 z M 21.187809,417.9931 -0.0838802,378.98621 0.2080599,371.51879 0.5,364.05137 23.374724,406.08481 c 13.265903,24.37676 23.347411,41.83662 24,41.56489 0.618902,-0.2577 18.667281,-7.51381 40.107508,-16.12469 21.440228,-8.61088 39.131268,-15.80518 39.313418,-15.98733 0.18215,-0.18215 -1.93262,-8.81514 -4.6995,-19.18443 C 103.71894,327.48194 92.144334,284.811 91.726734,284.3934 91.459886,284.12655 70.922117,292.02887 46.087246,301.95411 21.252375,311.87935 0.72302511,320 0.46646781,320 0.20991051,320 0,318.27223 0,316.16052 c 0,-3.01941 0.48058217,-4.05259 2.25,-4.83721 1.2375,-0.54874 22.95,-9.24796 48.25,-19.3316 25.3,-10.08363 46.16016,-18.45455 46.355911,-18.60204 0.51237,-0.38604 -3.011072,-9.36753 -3.887343,-9.9091 C 92.380424,263.11708 3.4741854,297.99719 0.75,299.66019 0.3375,299.912 0.01157311,298.17898 0.02571803,295.80902 L 0.05143605,291.5 35.275718,277.60101 c 19.373355,-7.64444 35.507722,-14.16944 35.854148,-14.5 0.346426,-0.33055 -0.103574,-2.25334 -1,-4.27286 L 68.5,255.15631 35.014639,268.57815 C 16.59769,275.96017 1.1851899,282 0.76463866,282 0.3440874,282 0,280.27593 0,278.16874 v -3.83126 L 16,268 c 15.048238,-5.96049 16,-6.49514 16,-8.98798 C 32,257.55425 29.975,237.29884 27.5,214 25.025,190.70116 23,171.35331 23,171.00477 c 0,-0.72913 22.143603,-3.1945 22.799688,-2.53842 0.238612,0.23862 2.420454,18.99546 4.848538,41.68188 2.428085,22.68641 4.573964,41.40729 4.768622,41.60195 0.194657,0.19466 4.208109,-1.20021 8.918782,-3.09971 l 8.56486,-3.45363 2.727745,6.95257 c 1.50026,3.82391 3.012758,7.12871 3.361105,7.344 0.348348,0.21529 4.594609,-1.18129 9.436137,-3.10353 4.841527,-1.92223 8.904529,-3.35882 9.028893,-3.19242 0.690239,0.92353 9.58922,24.0887 9.34181,24.31793 -0.1629,0.15093 -2.03277,0.99426 -4.15526,1.87406 -2.29583,0.95166 -3.663478,2.10938 -3.376212,2.85798 2.398782,6.25113 36.650252,137.23063 36.040012,137.81896 C 134.41222,420.92684 44.498613,457 43.246405,457 42.813606,457 32.887238,439.4469 21.187809,417.9931 Z m 23.23249,-161.39535 c 3.212836,-1.34241 3.335179,-1.5878 2.86673,-5.75 -0.269133,-2.39126 -2.131314,-20.09646 -4.13818,-39.34488 L 39.5,176.50574 l -4,0.34032 c -2.2,0.18718 -4.062184,0.41089 -4.138186,0.49713 -0.1169,0.13265 8.358243,79.68508 8.566164,80.40681 0.142785,0.49563 1.19321,0.2262 4.492321,-1.15225 z M 598.49234,376.48395 C 595.55422,370.51483 573.72053,331 573.36044,331 c -0.23357,0 -2.05432,0.68091 -4.0461,1.51313 -1.99178,0.83222 -3.73749,1.39472 -3.87936,1.25 C 565.04937,333.36977 556,310.36453 556,309.77761 c 0,-0.27824 2.1375,-1.31436 4.75,-2.30248 2.6125,-0.98813 6.65006,-2.60294 8.97236,-3.58847 l 4.22236,-1.79189 -1.3785,-3.79738 c -0.75818,-2.08857 -2.08365,-5.44151 -2.9455,-7.45098 l -1.56699,-3.65359 15.22313,-6.09963 c 8.37273,-3.35479 15.56064,-6.09817 15.97314,-6.09641 0.4125,0.002 0.75,1.73334 0.75,3.84794 v 3.84471 L 589,287 c -6.05,2.37081 -11,4.48803 -11,4.70494 0,0.39719 3.03756,6.54048 3.50588,7.09043 0.13833,0.16245 4.10563,-1.30005 8.81621,-3.25 4.71059,-1.94996 8.81517,-3.54537 9.1213,-3.54537 0.30614,0 0.55661,1.72777 0.55661,3.83948 0,4.44717 1.43876,3.56877 -19.2151,11.73137 -7.8567,3.10504 -14.46237,5.81181 -14.67927,6.01504 -0.34107,0.31958 2.69687,9.32386 3.45875,10.25153 0.24697,0.3007 16.80226,-6.07112 26.68562,-10.27079 l 3.75,-1.59347 -0.004,4.26342 -0.004,4.26342 -8.74638,3.38638 c -4.81052,1.86251 -9.06675,3.66787 -9.4583,4.01191 -0.39155,0.34404 3.56473,8.39079 8.79174,17.88165 l 9.50365,17.25612 -0.2994,7.73197 c -0.2302,5.9448 -0.52877,7.26598 -1.29174,5.71592 z M 243.5,370.60228 C 215.2133,365.20607 193.59929,354.37116 175.47113,336.5 c -8.35247,-8.23406 -10.86495,-11.4491 -14.2274,-18.20582 -2.24598,-4.5132 -4.62282,-10.80328 -5.28188,-13.97795 -3.18332,-15.33397 2.67231,-29.23203 16.09187,-38.19327 8.07268,-5.39073 15.35591,-7.95285 27.90489,-9.81649 8.86441,-1.31644 12.46698,-1.38053 22.64554,-0.40288 46.80279,4.49541 88.49693,33.00576 97.04096,66.35637 5.39879,21.07355 -8.51198,40.35552 -34.14511,47.32913 -8.12025,2.20915 -32.63128,2.80045 -42,1.01319 z m 35.14714,-9.53536 c 7.48484,-1.41947 15.95476,-4.88086 20.55666,-8.40086 4.73363,-3.62075 5.83599,-5.66606 3.05385,-5.66606 -2.29689,0 -5.14982,-3.00887 -8.29652,-8.75 -3.9027,-7.12045 -8.93658,-5.07736 -10.47136,4.25 -1.76744,10.74128 -4.07887,13.5 -11.31115,13.5 -7.05724,0 -10.74005,-2.43834 -16.84776,-11.1547 -3.02354,-4.31492 -5.76843,-7.8453 -6.09975,-7.8453 -0.33132,0 -2.66097,1.73581 -5.177,3.85736 -9.57565,8.07431 -16.05479,9.773 -23.51023,6.16388 -5.27654,-2.55433 -7.27614,-6.08254 -8.55411,-15.09334 -0.57004,-4.01935 -1.2119,-7.48336 -1.42634,-7.69781 -0.21445,-0.21444 -1.59189,0.39767 -3.06098,1.36026 -1.75526,1.15009 -5.37583,1.90673 -10.55984,2.20683 l -7.88876,0.45667 -3.52692,-3.52692 c -4.20067,-4.20067 -4.51898,-7.5304 -1.54595,-16.17166 3.25865,-9.47143 0.58304,-11.6334 -11.69698,-9.45146 l -7.44854,1.32347 0.59474,2.97373 c 3.86734,19.33671 28.79793,41.4788 58.5698,52.01876 16.52567,5.85049 40.50732,8.32871 54.64714,5.64715 z M 273.56184,341.25 c 1.57187,-10.90966 6.61361,-16.26829 16.04183,-17.05015 6.33197,-0.5251 8.04453,0.57165 12.17794,7.79893 1.41588,2.47567 2.68532,4.65481 2.82099,4.84253 0.83316,1.15278 4.3773,-1.37858 5.40546,-3.86078 4.1641,-10.05301 -7.98454,-30.61914 -25.95773,-43.94322 -39.4583,-29.25165 -100.05871,-32.06198 -115.70375,-5.36572 -3.42356,5.84186 -2.40646,6.93282 4.93231,5.29048 6.89341,-1.54268 11.37123,-0.72255 16.55418,3.03197 2.82193,2.04419 4.43569,4.17095 5.26487,6.93853 1.06025,3.53879 0.91177,4.78737 -1.31085,11.0231 -3.38702,9.50253 -2.76566,9.96783 9.47997,7.0989 13.85445,-3.24584 16.72345,-1.3602 18.17496,11.94543 1.35328,12.40523 6.15734,13.03309 18.78258,2.45474 7.7356,-6.48146 14.31107,-4.97389 20.9507,4.8034 5.1234,7.54455 7.32558,9.74186 9.76343,9.74186 1.55014,0 2.0759,-0.95205 2.62311,-4.75 z M 259,311.48842 C 240.184,307.28263 218.99382,297.78622 210.95656,289.95768 206.68278,285.79489 206,284.59125 206,281.21991 c 0,-4.9121 2.10642,-6.92656 8.48971,-8.11909 15.88823,-2.96824 55.36536,11.14131 66.90267,23.91174 4.65614,5.15378 4.77547,10.04867 0.32565,13.35722 -3.56406,2.64996 -13.64615,3.14641 -22.71803,1.11864 z m 15.57799,-8.36222 c -0.99476,-1.60957 -14.31162,-9.20846 -21.2321,-12.1155 -9.85792,-4.14096 -23.34785,-7.86262 -31.12027,-8.58561 l -6.72562,-0.62561 5.42992,3.748 c 11.36387,7.84388 31.6558,15.49462 46.02526,17.35306 3.59965,0.46556 6.90888,0.90339 7.35384,0.97296 0.44496,0.0696 0.566,-0.26671 0.26897,-0.7473 z m 163.73583,60.92357 c -4.19597,-2.55846 -5.54815,-5.28374 -4.74521,-9.56378 0.89466,-4.76897 -1.2151,-4.59548 -3.21046,0.26401 -0.84688,2.0625 -2.93719,5.2125 -4.64514,7 -2.53241,2.65037 -3.87452,3.25 -7.27432,3.25 C 412.27729,365 409,362.0686 409,356.55747 v -4.29737 l -4.71756,-0.53173 C 398.11356,351.03305 394,346.80145 394,341.15089 c 0,-2.09966 -0.30109,-4.11865 -0.66909,-4.48665 -0.368,-0.368 -2.61043,1.357 -4.98318,3.83333 -4.99077,5.20866 -8.49199,5.81246 -13.99235,2.41305 -5.97731,-3.69418 -7.04879,-9.00166 -2.91215,-14.42508 l 2.44324,-3.20325 -3.44324,-3.33731 c -4.24233,-4.11183 -4.59559,-8.42203 -1.03689,-12.65131 1.32349,-1.57287 2.56099,-3.72635 2.75,-4.7855 0.30162,-1.69012 -0.18279,-1.89036 -3.95932,-1.63665 -5.28634,0.35513 -8.83299,-1.75603 -10.78055,-6.41718 -3.11496,-7.45517 -1.13418,-13.40231 5.15518,-15.47799 2.73438,-0.90242 3.40295,-1.56126 2.8683,-2.82652 -1.59129,-3.76588 -1.54539,-6.16275 0.17376,-9.07304 0.99963,-1.69223 2.16187,-3.07679 2.58277,-3.07679 0.42089,0 0.50257,-1.91653 0.1815,-4.25896 -0.53488,-3.9024 -0.28893,-4.54722 2.93785,-7.70224 l 3.52161,-3.44328 -2.41872,-2.87449 c -3.25051,-3.86301 -3.18601,-8.65571 0.17017,-12.6443 1.4239,-1.6922 3.4489,-3.07673 4.5,-3.07673 2.03709,0 2.57212,-1.47344 0.90841,-2.50167 -0.66573,-0.41144 -0.65008,-1.27861 0.0466,-2.58031 1.42087,-2.65493 98.52552,-51.21466 100.78611,-50.40073 0.9185,0.3307 5.72001,5.21103 10.67001,10.84516 4.95,5.63414 21.53611,24.29729 36.85801,41.47367 19.17517,21.49601 27.71299,31.76496 27.39271,32.94683 -0.5026,1.85468 -56.01395,86.7995 -59.89887,91.65872 -1.29352,1.61791 -2.88038,4.17629 -3.52637,5.68528 -1.44505,3.37558 -6.04173,5.87305 -10.80955,5.87305 -3.03744,0 -3.89899,-0.53493 -5.65499,-3.51111 l -2.0716,-3.51111 -3.41301,2.99666 c -4.77438,4.19196 -7.86994,4.77607 -11.41627,2.15415 -3.54413,-2.62029 -3.11565,-2.64135 -7.5552,0.37141 -4.42751,3.00459 -6.86675,3.1255 -11.09104,0.54977 z m 9.82909,-8.70715 c 0.89129,-1.01344 1.92281,-2.83536 2.29226,-4.0487 0.36945,-1.21334 2.11017,-3.42214 3.86828,-4.90844 2.2197,-1.87654 2.77636,-2.84494 1.82155,-3.16892 -3.18797,-1.08173 -5.20044,-4.31158 -4.98766,-8.00481 0.34826,-6.04473 -4.11716,-11.9877 -8.06568,-10.7345 -1.67021,0.53011 -2.07166,1.48646 -2.07166,4.93515 0,5.37493 -2.02781,7.34348 -8.00181,7.76797 C 428.7379,337.4831 428.5,337.65866 428.5,340.5 c 0,2.87236 0.22416,3.02736 5.26867,3.64305 7.47863,0.91277 8.5934,2.11919 7.84468,8.48963 -0.80273,6.83002 1.91434,7.95768 6.52956,2.70994 z M 421.22673,356.25 c 2.58082,-2.93903 3.01364,-5.95351 1.24286,-8.65607 -1.86003,-2.83876 -2.17169,-10.41352 -0.55292,-13.43822 1.92595,-3.59867 1.34571,-8.11888 -1.16667,-9.08863 -2.83591,-1.09463 -4.05404,0.12977 -5.61487,5.64376 -1.03024,3.63955 -1.69686,4.35107 -4.91354,5.24442 -2.04687,0.56847 -4.70377,1.0361 -5.9042,1.03916 -2.8123,0.007 -4.10069,3.65085 -2.02492,5.72662 0.82392,0.82392 3.68267,1.89742 6.35278,2.38556 5.68817,1.03988 8.64222,3.89985 7.74022,7.4937 -1.22893,4.89645 1.7647,7.15328 4.84126,3.6497 z m 62.29585,-0.64411 c 2.41785,-3.69011 1.10166,-6.3588 -7.82516,-15.86613 C 468.86471,332.46272 466.98158,331 464.44565,331 461.27986,331 459,332.51682 459,334.62308 c 0,0.67269 1.35,2.57307 3,4.22307 3.96743,3.96743 3.79899,6.66415 -0.6801,10.88848 -2.86993,2.70669 -3.45961,3.82033 -2.67856,5.05856 1.63379,2.59009 2.98436,2.47141 6.51464,-0.57248 1.83921,-1.5858 4.13543,-3.17158 5.1027,-3.52394 2.76035,-1.00555 6.49785,0.93174 8.2191,4.26027 1.8972,3.66878 2.97522,3.80743 5.0448,0.64885 z m 23.56152,-35.07312 c 8.47874,-12.95484 20.64242,-31.53692 27.03039,-41.29351 L 545.72898,261.5 l -3.11449,-3.58649 c -1.71297,-1.97257 -3.40585,-3.43703 -3.76197,-3.25435 -0.35611,0.18268 -4.43393,5.6216 -9.06182,12.08649 -4.6279,6.46489 -16.49759,23.00435 -26.37711,36.75435 -9.87951,13.75 -18.93996,26.38543 -20.13432,28.07874 l -2.17156,3.07874 4.52999,5.17846 c 2.49149,2.84815 4.8676,4.9698 5.28024,4.71478 0.41264,-0.25503 7.68741,-11.0631 16.16616,-24.01795 z m -122.84431,13.5941 c 3.64104,-4.32712 5.47972,-4.90667 14.98539,-4.72336 9.60924,0.18531 12.00679,-1.19795 6.77005,-3.90597 -4.15371,-2.14797 -5.37833,-5.0116 -5.47572,-12.80427 -0.0603,-4.82227 -0.51283,-7.07727 -1.55229,-7.73469 -2.77442,-1.7547 -4.47065,-0.93008 -6.10783,2.96934 -2.24259,5.34136 -6.79367,7.70795 -11.88777,6.18172 C 378.93461,313.49934 376.75767,313 376.13398,313 c -2.28311,0 -1.04247,3.44181 2.36602,6.56387 4.26097,3.90289 4.36682,5.93945 0.58038,11.16647 -2.15437,2.97402 -2.62616,4.32388 -1.8,5.15004 1.89268,1.89268 4.4291,1.25359 6.95941,-1.75351 z m 49.24654,-7.18911 c -0.6116,-2.78459 -0.15577,-3.53939 5.02754,-8.32514 7.55718,-6.97752 7.34502,-9.11262 -0.90548,-9.11262 -6.37168,0 -7.81695,-1.11942 -10.19761,-7.89842 -0.88109,-2.50894 -1.6454,-3.10158 -4,-3.10158 -2.72555,0 -2.94523,0.2996 -3.45208,4.70797 -0.29772,2.58938 -0.82213,4.98879 -1.16535,5.33202 -0.34323,0.34322 -2.79964,1.17636 -5.4587,1.85142 -4.45406,1.13075 -4.86017,1.48996 -5.15883,4.56312 -0.41408,4.26075 1.17978,5.21266 5.62095,3.35703 6.84402,-2.85962 14.32452,0.71145 16.21767,7.74206 1.32556,4.92275 4.53863,5.74098 3.47189,0.88414 z m 72.36036,-39.89459 27.97309,-38.45683 -1.92765,-2.4506 c -1.06021,-1.34784 -3.7496,-4.4272 -5.97644,-6.84303 l -4.04879,-4.39242 -6.26679,6.79986 c -3.44674,3.73992 -18.23527,19.91894 -32.8634,35.95337 l -26.59661,29.15353 9.55837,10.68234 c 7.92854,8.86086 9.78147,10.45456 10.86675,9.34647 0.71961,-0.73472 13.89627,-18.64143 29.28147,-39.79269 z m -46.06808,37.11482 c 0.94334,-0.59863 0.19994,-2.03683 -2.83498,-5.48469 -4.60968,-5.23688 -5.47039,-5.59096 -6.25911,-2.57491 -0.38378,1.46758 0.40784,3.1154 2.63337,5.48154 3.31766,3.52728 4.32897,3.93083 6.46072,2.57806 z M 385.97932,305 c 0.37597,-0.825 1.43252,-2.99565 2.34789,-4.82366 1.29777,-2.59165 1.41875,-3.7825 0.54933,-5.40703 -0.6543,-1.22256 -0.87541,-4.1877 -0.53514,-7.17634 0.56577,-4.96929 0.50208,-5.1294 -2.62252,-6.59297 -1.76131,-0.825 -4.47333,-3.4125 -6.02672,-5.75 -4.42934,-6.66513 -10.05184,-5.05321 -6.04338,1.73258 1.64623,2.78684 1.67892,3.34041 0.33712,5.70798 -0.86198,1.52096 -3.14524,3.19346 -5.43771,3.98317 -5.75446,1.98229 -6.8101,4.06436 -3.65858,7.21588 1.48064,1.48064 2.85573,1.7807 6.35357,1.38645 6.53489,-0.73658 8.75682,0.80931 8.75682,6.09246 0,2.36398 0.31898,4.61713 0.70885,5.007 1.14017,1.14016 4.52682,0.2563 5.27047,-1.37552 z m 27.26107,-6.75 c 0.45377,-5.34613 -0.17312,-7.18624 -2.46471,-7.23469 -0.39838,-0.008 -1.47184,1.44719 -2.38548,3.23469 -0.91364,1.7875 -2.27206,3.60811 -3.01872,4.0458 -2.28462,1.33923 1.25048,5.7042 4.6197,5.7042 2.63816,0 2.7829,-0.25614 3.24921,-5.75 z m 26.43861,2.96955 c 0.79018,-0.50254 -1.02368,-3.17134 -5.5,-8.09239 l -6.679,-7.34257 -1.88612,2.08686 c -1.84816,2.04485 -1.84816,2.09897 0,2.68906 5.23419,1.67118 6.27099,2.57117 7.91193,6.86791 1.7015,4.4553 3.43221,5.52163 6.15319,3.79113 z m 29.87082,-19.89732 c 9.8726,-10.82278 24.54818,-26.8906 32.6124,-35.70628 12.6712,-13.85196 14.49931,-16.2611 13.46251,-17.74133 C 513.84244,225.33004 505.00474,216 504.37673,216 c -0.5538,0 -72.0711,51.31243 -76.3775,54.79954 l -2.36507,1.91512 12.43292,14.04975 c 6.83811,7.72736 12.68034,14.09156 12.98274,14.14267 0.3024,0.0511 8.6274,-8.76208 18.5,-19.58485 z m -66.27883,6.39591 c 2.51415,-5.35745 5.6344,-6.56153 10.12997,-3.90908 3.38503,1.99722 3.60249,2.00873 5.7098,0.30234 2.94018,-2.38082 2.08259,-5.4741 -3.17297,-11.44473 C 411.71329,267.86738 410,266.93273 410,269.42742 410,272.00867 404.98781,275 400.66275,275 c -3.17231,0 -4.75432,-0.66566 -7.188,-3.02448 l -3.12047,-3.02447 -1.91387,2.11479 c -1.88542,2.08338 -1.88522,2.13574 0.014,3.52448 1.06032,0.77532 2.87685,1.40968 4.03673,1.40968 4.20648,0 5.75993,4.57927 3.53692,10.42622 -2.51306,6.60984 4.18654,7.80485 7.24294,1.29192 z m -0.28009,-21.20718 c 2.53493,-3.0544 0.25127,-8.17182 -7.54804,-16.91434 -4.10216,-4.59824 -8.76223,-8.90048 -10.35572,-9.56053 -6.73972,-2.79168 -10.59141,1.26264 -5.62873,5.92484 3.35788,3.15456 3.20844,6.026 -0.49842,9.5774 -3.29697,3.1587 -3.55239,6.07812 -0.68763,7.85954 1.39026,0.86453 2.6187,0.61706 5.69812,-1.14787 5.51094,-3.15853 7.4497,-2.85423 11.14976,1.75 3.38312,4.20984 5.81645,4.98614 7.87066,2.51096 z M 444,250.16935 c 11.825,-8.51424 24.65,-17.78874 28.5,-20.61 3.85,-2.82125 11.3875,-8.24788 16.75,-12.05917 5.3625,-3.81129 9.75,-7.28725 9.75,-7.72435 0,-0.4371 -2.3625,-3.46423 -5.25,-6.72696 -3.35355,-3.78934 -5.87503,-5.80836 -6.9803,-5.58932 -1.37068,0.27164 -84.29969,45.87588 -85.6151,47.08137 -0.76702,0.70294 19.41849,22.21593 20.3454,21.68339 0.55,-0.31599 10.675,-7.54072 22.5,-16.05496 z m -6.28878,-34.32681 c 22.98383,-12.7366 42.44146,-23.75535 43.23918,-24.48611 1.25328,-1.14809 1.06603,-1.72985 -1.3779,-4.28076 l -2.82829,-2.9521 -44.92746,22.46807 -44.92745,22.46807 4.30535,4.92512 c 2.36794,2.70881 4.4004,4.94538 4.51657,4.97014 0.11617,0.0248 19.01617,-10.37583 42,-23.11243 z m -193.73202,7.11859 c -0.92458,-1.72759 1.7237,-8.02551 17.34568,-41.25 10.14027,-21.56612 27.0278,-57.49031 37.52785,-79.83153 l 19.091,-40.620407 -2.11372,-4.374886 c -2.84635,-5.89128 -2.95627,-13.898845 -0.2407,-17.536051 5.42351,-7.264205 19.54589,-9.2476 38.33322,-5.383647 12.64895,2.601484 22.54402,6.329542 38.71485,14.586167 44.95737,22.954689 72.31564,46.870538 72.35285,63.248884 0.0116,5.1246 -1.64881,8.59275 -6.15491,12.85563 -2.17678,2.05929 -17.9242,10.00063 -45.33532,22.86236 -23.1,10.83889 -49.2,23.09299 -58,27.23134 -8.8,4.13835 -19.6,9.21391 -24,11.27903 -4.4,2.06512 -12.275,5.7685 -17.5,8.22974 -5.225,2.46124 -16.475,7.74763 -25,11.74754 -8.525,3.99991 -21.08024,9.91004 -27.90053,13.13363 C 254.27918,222.36252 247.88252,225 246.88466,225 c -0.99786,0 -2.30532,-0.91749 -2.90546,-2.03887 z m 46.76142,-26.85636 C 309.30828,187.3624 347,169.63779 374.5,156.71676 402,143.79572 427.08306,131.998 430.24014,130.49958 l 5.74014,-2.72438 -1.74014,-3.10306 C 433.28306,122.96545 427.775,116.79893 422,110.96875 406.46531,95.285645 387.63442,83.533461 363.72802,74.601751 351.16251,69.907127 334.1056,65.802182 328.79133,66.193825 L 324.63678,66.5 l -12.28257,26 c -6.75541,14.3 -17.44063,37.025 -23.74494,50.5 -6.3043,13.475 -16.18804,34.5125 -21.96385,46.75 -5.77581,12.2375 -10.31309,22.25 -10.08283,22.25 0.23026,0 15.61037,-7.15285 34.17803,-15.89523 z M 288,188.29377 c -0.825,-0.30158 -2.55526,-1.50356 -3.84501,-2.67105 -7.14186,-6.46485 -6.77584,-15.55674 0.88582,-22.0036 3.97233,-3.3425 11.5714,-3.63994 16.42096,-0.64275 12.05095,7.4479 6.13844,26.24181 -8.16211,25.94468 -2.08981,-0.0434 -4.47466,-0.32569 -5.29966,-0.62728 z M 298,179 c 3.89984,-3.89984 1.36523,-10 -4.15499,-10 C 290.63377,169 287,172.08508 287,174.81144 287,177.4839 290.71518,181 293.53896,181 294.89253,181 296.9,180.1 298,179 Z m 21.5,-13.86946 c -7.07361,-3.38105 -12.58996,-8.65099 -15.73348,-15.03068 -3.28221,-6.66118 -3.25875,-20.58544 0.046,-27.29473 3.08909,-6.27146 9.1365,-12.14383 15.92722,-15.46622 7.95084,-3.88999 19.27262,-3.94485 27.4806,-0.13317 20.49218,9.51631 25.21753,35.48683 9.34488,51.35948 -9.7237,9.72369 -24.85146,12.40326 -37.06522,6.56532 z m 21.88398,-6.34666 c 5.49284,-1.62291 13.77699,-9.90706 15.3999,-15.3999 3.53802,-11.97464 -2.25154,-24.23557 -13.78388,-29.191 -5.64875,-2.42726 -14.63952,-1.97113 -20.5,1.04002 -6.07946,3.12367 -8.74134,5.8674 -11.41597,11.767 -8.5341,18.82424 9.63973,37.88814 30.29995,31.78388 z m -15.88175,-4.15859 c -2.53352,-1.85256 -1.60026,-6.04088 1.44174,-6.47026 3.06904,-0.4332 5.38802,2.35612 4.04506,4.86546 -1.29901,2.42722 -3.48692,3.06715 -5.4868,1.6048 z m 17.60296,-2.99854 c -0.62683,-0.75529 -0.84945,-2.12963 -0.4947,-3.0541 0.89293,-2.32692 5.75392,-1.69678 6.22935,0.80752 0.60068,3.16404 -3.60564,4.81188 -5.73465,2.24658 z M 314.60426,139.84539 C 312.68288,137.10224 314.13223,134 317.33518,134 c 4.46137,0 6.41819,4.99125 2.73056,6.96482 -2.79756,1.49721 -3.76804,1.29829 -5.46148,-1.11943 z m 14.83586,-0.29643 c -3.31633,-5.06136 1.97963,-10.46963 7.01892,-7.16776 3.01254,1.97389 3.33588,5.58943 0.71222,7.96381 -2.62416,2.37483 -5.87266,2.04035 -7.73114,-0.79605 z m 17.49468,-0.67079 c -0.93343,-1.74413 -0.78337,-2.47404 0.84298,-4.10039 1.62635,-1.62635 2.35626,-1.77641 4.10039,-0.84298 2.34428,1.25462 2.7773,4.00973 0.92183,5.8652 -1.85547,1.85547 -4.61058,1.42245 -5.8652,-0.92183 z M 338.2,126.8 c -1.77635,-1.77635 -1.46025,-4.2545 0.80406,-6.30368 1.65591,-1.49857 2.43767,-1.61608 4.5,-0.67642 4.32235,1.96939 2.80077,8.1801 -2.00406,8.1801 -1.155,0 -2.64,-0.54 -3.3,-1.2 z m -14.95,-0.46228 c -1.71031,-0.69012 -1.57781,-4.82077 0.20201,-6.29789 1.74797,-1.45069 5.13567,-0.5567 5.95202,1.57068 1.35179,3.52269 -2.2612,6.298 -6.15403,4.72721 z m 63.20863,11.78262 c -10.52557,-4.78111 -14.34448,-17.05836 -8.16049,-26.23479 6.02475,-8.94012 17.23949,-11.36732 25.81631,-5.58741 9.96726,6.71694 11.35113,19.47157 3.0169,27.8058 -5.77837,5.77837 -13.49374,7.27735 -20.67272,4.0164 z m 10.85711,-7.2453 C 402.01884,128.45279 404,125.76021 404,121.7905 c 0,-5.12725 -2.39383,-8.5286 -6.96651,-9.89861 -5.05636,-1.51492 -10.21546,0.86447 -12.5524,5.7892 -2.30314,4.85351 -0.41648,10.07177 4.54372,12.56736 4.07339,2.04941 5.34216,2.1453 8.29093,0.62659 z M 332.07108,98.248446 c -4.63064,-2.361221 -7.20007,-6.139563 -7.74175,-11.38421 -0.61786,-5.982228 2.05636,-10.704738 7.74466,-13.676642 9.89095,-5.167608 20.91221,1.372013 20.92227,12.414523 0.007,7.442302 -6.99471,14.394775 -14.49626,14.394775 -1.65,0 -4.54301,-0.786801 -6.42892,-1.748446 z m 10.29406,-8.321026 c 3.12833,-2.460744 3.40364,-5.921707 0.668,-8.397432 -2.73168,-2.47213 -7.02358,-2.26002 -9.22271,0.455796 -2.42235,2.991471 -2.28248,4.633079 0.64412,7.559671 2.9947,2.994701 4.49683,3.067231 7.91059,0.381965 z m 108.79371,30.39971 c 7.24069,-4.89355 7.36611,-10.68925 0.43439,-20.07417 C 441.79834,86.991537 415.33377,68.802577 382.92839,53.059954 364.20298,43.9631 352.34315,40.66941 337.96082,40.571642 325.15308,40.484579 322,41.867649 322,47.572713 c 0,3.488669 2.37593,9.423537 3.77568,9.431308 0.39838,0.0022 4.77432,0.661043 9.72432,1.464069 24.21543,3.928407 53.64715,16.256451 74.93862,31.389491 10.0765,7.161936 24.1779,20.937459 29.08305,28.410959 4.22087,6.43094 4.97125,6.56368 11.63718,2.05859 z M 142,196.47775 c -21.725,-5.6728 -44.130485,-11.53917 -49.789967,-13.03638 -6.656742,-1.76104 -10.615228,-3.32997 -11.211167,-4.44349 -0.526171,-0.98316 -0.974655,-26.02805 -1.045854,-58.40413 -0.112082,-50.966379 0.04061,-56.935071 1.514057,-59.183835 2.640339,-4.029667 5.958619,-5.05421 10.050199,-3.103072 l 3.464297,1.652009 1.136018,-4.511537 C 97.415573,50.292531 100.04058,48 104.64495,48 c 2.78358,0 3.35357,-0.465479 4.38059,-3.577394 1.34201,-4.066322 5.97498,-7.413125 10.26991,-7.418868 3.08817,-0.0041 7.70455,3.910975 7.70455,6.534141 0,0.895833 0.5625,1.441242 1.25,1.21202 0.87845,-0.292889 1.15008,-2.370009 0.91384,-6.988076 -0.38229,-7.472815 0.64916,-10.096642 4.81614,-12.251473 4.73458,-2.448344 7.54528,-1.909646 10.83038,2.075749 2.93344,3.558773 2.97934,3.574013 6.02314,2 C 152.52045,28.713745 155.55001,28 157.56586,28 c 3.01414,0 4.33007,0.727368 7.40823,4.094833 3.64473,3.987275 3.75954,4.033242 4.37082,1.75 0.34528,-1.289658 0.63393,-3.557239 0.64144,-5.039069 0.008,-1.48183 1.10063,-3.95683 2.42915,-5.5 2.1276,-2.471341 3.04817,-2.786794 7.72349,-2.646607 4.44036,0.133142 5.69362,0.60749 7.66727,2.901997 1.90191,2.211099 2.23222,3.420213 1.7038,6.236888 -0.73722,3.929769 0.36246,5.16189 4.62916,5.186645 1.45156,0.0084 3.63671,0.823036 4.85587,1.810252 1.83596,1.486671 2.20502,2.768659 2.14893,7.464562 -0.0372,3.118292 0.36247,5.935491 0.88825,6.260441 0.52578,0.32495 2.46358,-0.559103 4.30624,-1.964562 1.84265,-1.405459 4.4328,-2.552415 5.75588,-2.548791 4.81023,0.01318 11.89243,6.857749 11.89243,11.493411 0,1.1 -0.89407,3.35 -1.98682,5 -2.46271,3.718568 -2.47346,4.214954 -0.10755,4.965866 2.4885,0.789819 4.50603,5.810309 3.67136,9.135921 -0.51138,2.037496 -0.16942,2.986155 1.49721,4.153507 1.88886,1.323011 2.10739,2.239678 1.74111,7.303462 l -0.41885,5.790566 3.27962,0.61526 c 1.80379,0.338393 3.96755,1.597423 4.80836,2.797845 1.97581,2.820873 1.9589,8.678423 -0.0333,11.522653 -1.41602,2.02166 -1.41602,2.28612 0,2.8295 0.85911,0.32967 1.56202,1.53711 1.56202,2.68321 0,1.1461 -10.97012,21.46046 -24.37805,45.14301 -13.40793,23.68256 -24.89877,44.0717 -25.53519,45.3092 -0.79753,1.55077 -2.00081,2.21767 -3.87194,2.14596 -1.49313,-0.0572 -20.4898,-4.74542 -42.2148,-10.41821 z m 63.79968,-37.38159 C 218.55985,136.59904 229,117.77065 229,117.25528 c 0,-0.95142 -10.81195,-3.77666 -11.56627,-3.02234 -0.93408,0.93407 -42.60453,82.92523 -42.28338,83.19717 0.388,0.32856 6.03246,2.36644 6.89933,2.49094 0.30232,0.0434 10.98982,-18.32778 23.75,-40.82489 z m -16.90662,-4.69198 c 11.72341,-22.8777 20.93092,-41.97201 20.46112,-42.4318 -1.11309,-1.08937 -25.44479,-7.2151 -26.0912,-6.56869 -0.71548,0.71548 -32.34556,85.84707 -32.01771,86.17491 0.23258,0.23259 14.1907,4.05972 15.79361,4.3304 0.29638,0.05 10.13076,-18.62712 21.85418,-41.50482 z M 155.48784,159.5 C 161.415,143.55 168.45498,124.65492 171.13225,117.51093 173.80951,110.36695 176,104.19202 176,103.78887 c 0,-0.81201 -4.69664,-2.22131 -22.4293,-6.730278 -6.56112,-1.668326 -12.139,-2.823628 -12.39529,-2.567338 -0.91045,0.910455 -14.04195,90.020496 -13.36461,90.691926 1.10722,1.09755 15.62934,4.59723 16.29479,3.92688 0.33308,-0.33553 5.45509,-13.66006 11.38225,-29.61006 z m -28.19958,-21.63179 c 3.73354,-24.81876 6.60366,-45.309622 6.37804,-45.535244 -0.22562,-0.225622 -6.12603,-1.91816 -13.11201,-3.761197 -8.71421,-2.298977 -12.8215,-2.99321 -13.0831,-2.211372 -0.43234,1.292095 -3.48618,77.891173 -3.4771,87.215723 l 0.006,6.07611 6.25,1.56188 c 11.31238,2.82696 9.33601,7.85492 17.03826,-43.3459 z M 97.004064,172.25 c 0.0057,-6.71038 1.809,-60.16643 2.558789,-75.853109 l 0.626297,-13.103108 -6.343526,-1.597939 c -3.488941,-0.878866 -6.569,-1.282468 -6.844577,-0.896891 -0.275576,0.385576 -0.375609,21.729037 -0.222295,47.429907 l 0.278751,46.72886 3.221249,0.93095 c 6.272856,1.81288 6.720855,1.57049 6.725312,-3.63867 z M 229.06574,105.96482 C 230.17493,105.3712 231,103.87825 231,102.46482 231,100.4855 230.49462,100 228.43426,100 c -5.32319,0 -6.64918,-1.630028 -6.27519,-7.714044 0.26282,-4.2757 -0.0289,-5.782072 -1.27315,-6.575297 -2.43292,-1.550955 -4.57338,-0.243615 -6.82397,4.167909 -2.44884,4.800116 -4.74973,5.696551 -9.51305,3.70631 -4.13697,-1.728535 -6.20109,-1.256103 -7.11674,1.628868 -1.07928,3.400494 3.56638,6.954034 12.31471,9.419744 8.51285,2.39933 16.31822,2.93723 19.31887,1.33133 z m -38.8507,-9.953048 c -0.35442,-2.41479 0.26058,-3.687388 3.20478,-6.631594 3.38304,-3.383037 3.95845,-3.600179 8.05301,-3.038956 3.85095,0.52783 4.49201,0.344904 5.05972,-1.443767 0.93904,-2.958668 0.0206,-3.360982 -5.03295,-2.204571 -5.46489,1.250543 -6.91667,0.396723 -8.82964,-5.192884 -2.46249,-7.195281 -7.77646,-5.624472 -6.9122,2.043247 C 186.3886,85.140008 184.25605,88 179.452,88 176.29318,88 175,89.323425 175,92.556107 c 0,2.143636 8.55549,6.150123 13.57681,6.35794 1.74991,0.07242 2.00777,-0.384406 1.63823,-2.902275 z M 168.39878,88.16898 c -0.12512,-0.182061 -1.13644,0.155439 -2.24739,0.75 -3.11608,1.667673 -5.35111,1.309345 -9.52538,-1.527143 -3.50261,-2.380084 -3.9768,-2.469615 -5.42261,-1.02381 -0.87139,0.871395 -1.27602,1.892686 -0.89917,2.269537 0.37685,0.37685 4.40007,1.672944 8.94048,2.880209 l 8.25529,2.195026 0.56314,-2.6064 c 0.30972,-1.433519 0.46076,-2.755358 0.33564,-2.937419 z M 133.60699,83.418213 C 133.27314,82.548229 133,81.476651 133,81.036928 c 0,-0.439724 -2.07411,-1.321765 -4.60914,-1.960092 -4.08655,-1.029006 -4.7589,-0.957432 -5.93011,0.631285 -0.72654,0.985534 -0.93199,1.932024 -0.45656,2.103312 1.33485,0.480924 10.38877,2.924846 11.3528,3.064457 0.47134,0.06826 0.58384,-0.587694 0.25,-1.457677 z M 147,80.5 c 1.53545,-1.634409 3.43284,-2.5 5.48003,-2.5 1.76989,0 4.60474,1.086989 6.51997,2.5 3.97342,2.931496 4.36635,2.990796 6.39242,0.964723 1.38037,-1.380369 1.3375,-1.859639 -0.42483,-4.75 C 162.25795,72.27072 162.50253,69.850785 166,66.5 c 3.5571,-3.407916 3.71607,-4.783925 0.88033,-7.619667 l -2.11966,-2.119667 -3.63034,4.214568 c -3.03536,3.523849 -4.37537,4.298505 -8.17637,4.72673 -3.86498,0.435433 -5.0102,0.121589 -7.64435,-2.094901 -4.60626,-3.875908 -6.94903,-3.358668 -3.77781,0.834067 1.89974,2.511676 1.85131,4.711762 -0.23287,10.579917 -1.42094,4.000758 -1.48312,5.052093 -0.37756,6.384214 C 142.76519,83.626919 144.27343,83.402304 147,80.5 Z m 31.62996,-4.951292 c -0.10585,-4.439986 -0.50788,-5.623875 -2.1671,-6.381575 -1.50978,-0.689457 -2.63165,-0.448869 -4.3337,0.929367 l -2.29657,1.859648 2.0837,2.926297 C 173.06233,76.491908 174,78.526774 174,79.40437 174,80.418248 174.86771,81 176.37996,81 c 2.23145,0 2.37186,-0.340161 2.25,-5.451292 z m -62.33594,0.678556 c 0.98671,-0.889303 1.66171,-2.541743 1.5,-3.672089 -0.22913,-1.601583 -1.25079,-2.182859 -4.62902,-2.633698 -5.92537,-0.790762 -7.58436,-4.058066 -5.2192,-10.278916 0.70119,-1.844281 0.57518,-2.795227 -0.48727,-3.676975 -2.23691,-1.856472 -4.25744,-0.4261 -5.4019,3.824113 -1.84802,6.863005 -4.849123,8.218785 -12.668724,5.723222 -3.063503,-0.977692 -3.996082,2.195528 -1.591694,5.415945 1.44003,1.928763 4.235557,3.171793 11.795555,5.244887 10.245673,2.809559 13.632293,2.820409 16.702253,0.05351 z M 217.8,76.8 c 1.81117,-1.811172 1.51195,-2.418391 -2.3,-4.667499 -2.90195,-1.71219 -3.5,-2.642383 -3.5,-5.443788 0,-2.134784 0.75377,-4.060889 2.04733,-5.231549 1.27535,-1.154173 1.93522,-2.815158 1.75,-4.404988 -0.42472,-3.645666 -4.58843,-3.94028 -8.55204,-0.605123 -4.13992,3.483512 -7.56567,3.316132 -10.28478,-0.502506 -2.94314,-4.133265 -6.57641,-3.808052 -6.2055,0.555453 0.14025,1.65 0.34275,4.4625 0.45,6.25 0.11072,1.845428 0.73998,3.25 1.45603,3.25 1.89887,0 5.16106,3.913542 5.84039,7.006525 0.5635,2.565582 0.86887,2.706063 4.89567,2.252184 2.81837,-0.317671 5.29298,0.05653 7.19879,1.088571 3.52875,1.910902 5.61483,2.041996 7.20411,0.45272 z m -82.5062,-5.893117 c 0.73972,-1.180757 0.40932,-2.389423 -1.27647,-4.669571 -2.84481,-3.847809 -2.18083,-7.27264 1.98506,-10.239013 3.26664,-2.326055 3.95473,-5.693786 1.36629,-6.687063 -0.89722,-0.344298 -3.50234,0.396094 -5.78914,1.645315 -5.53192,3.021934 -7.65874,2.44937 -10.05366,-2.706551 -3.34733,-7.206334 -6.79474,-4.822816 -6.40301,4.427008 0.13563,3.202645 -0.10242,7.029057 -0.52901,8.503137 -0.68972,2.383362 -0.54428,2.619649 1.3135,2.133831 2.47475,-0.647163 6.69827,1.868106 7.52834,4.483421 0.68861,2.16962 6.2295,5.204094 8.96217,4.908144 1.04383,-0.113048 2.347,-0.922444 2.89593,-1.798658 z m 48.3763,-13.892179 c -0.19956,-6.797091 1.65007,-9.608939 6.97823,-10.608509 1.85557,-0.348107 3.66254,-1.100174 4.01549,-1.671262 C 195.59113,43.234509 192.08828,41 188.80887,41 c -1.54488,0 -3.76266,-0.953793 -4.92841,-2.119539 -1.74019,-1.740196 -2.0144,-2.886588 -1.53211,-6.405332 0.44441,-3.242258 0.23002,-4.422944 -0.88046,-4.849076 -3.37786,-1.296208 -5.42268,1.496689 -5.45424,7.449633 -0.0141,2.663657 -2.63718,5.650757 -7.06447,8.044906 -9.53577,5.156665 -10.81801,7.172604 -4.87217,7.659998 5.1239,0.420018 7.81666,2.181839 10.60392,6.937926 2.80467,4.785821 4.74331,6.244809 7.3812,5.554984 1.47247,-0.385058 1.74884,-1.460782 1.60797,-6.258796 z M 154.3792,56 c -0.0664,-1.375 -0.46029,-3.96298 -0.87522,-5.751067 -0.68627,-2.957438 -0.37229,-3.600357 3.47641,-7.118416 3.73227,-3.411629 4.09639,-4.11853 3.09003,-5.998933 -1.4212,-2.655541 -3.566,-2.684598 -9.34866,-0.126653 -5.36225,2.371975 -6.97259,1.943318 -9.78308,-2.604155 -2.40088,-3.884694 -3.44076,-4.199671 -4.89487,-1.482638 -1.76355,3.295232 -0.20603,7.646729 3.2905,9.193188 3.25977,1.441744 7.61994,7.888564 7.64924,11.309933 0.0235,2.74307 3.04751,5.718083 5.46128,5.372761 1.48798,-0.212876 2.02183,-0.983973 1.93437,-2.79402 z M 570.93936,156.95289 C 557.18616,154.74267 535.28112,137.32853 511.24892,109.5 488.96122,83.691545 478.32659,66.878394 475.39413,52.814259 473.83381,45.330915 474.56017,39.949345 477.79856,35 c 0.98186,-1.500609 1.6489,-4.631477 1.66861,-7.83194 0.0292,-4.738708 0.39618,-5.656604 3.29861,-8.25 C 485.2193,16.725772 487.02531,16 490.02709,16 c 3.01677,0 5.42811,-0.977874 9.84369,-3.991919 25.86279,-17.6537796 62.84439,-12.76942357 91.95892,12.145502 L 600,31.145361 599.96508,36.82268 599.93017,42.5 595.85431,37.742051 C 585.82003,26.028543 566.9347,14.234322 552.5,10.66652 534.76605,6.2832472 516.82766,8.693388 504.54502,17.109585 l -3.36496,2.305708 2.15997,2.646503 c 1.18798,1.455576 8.45997,9.597026 16.15997,18.092112 16.26384,17.94321 41.30383,46.418862 64.31529,73.139792 L 600,132.08741 v 9.29578 c 0,8.99087 -0.0835,9.33385 -2.54705,10.45629 -1.40088,0.63829 -4.16027,1.16052 -6.13197,1.16052 -1.9717,0 -4.98803,0.84097 -6.70295,1.86882 -3.9979,2.39618 -7.9704,3.00142 -13.67867,2.08407 z m 9.50785,-7.86748 c 0.31089,-0.50302 0.22495,-1.06552 -0.19098,-1.25 -0.41593,-0.18448 -3.57784,-3.53444 -7.02647,-7.44436 l -6.27024,-7.10896 -11.22976,-0.70405 c -6.17637,-0.38723 -11.5594,-1.02785 -11.9623,-1.42359 -0.40289,-0.39574 -2.87789,-8.647 -5.5,-18.33614 L 533.5,95.20169 508.60605,66.982385 C 481.47437,36.226438 481.68643,36.379822 481.78712,47.584735 481.89348,59.42121 494.13602,79.389922 517.6007,106 c 19.06419,21.61971 35.62272,36.31648 46.8993,41.62616 5.10634,2.40438 14.81409,3.29268 15.94721,1.45925 z m 15.35613,-7.21763 c 0.22147,-2.65177 -0.3184,-4.35341 -2,-6.30396 -2.13465,-2.47608 -2.7972,-2.64949 -9.04682,-2.36778 l -6.74348,0.30396 5.62131,6.30382 c 4.91195,5.50835 6.01529,6.26549 8.74348,6 2.80066,-0.27253 3.15341,-0.67785 3.42551,-3.93604 z m -13.97542,-19.7089 C 571.2359,109.93346 534.69153,69.975138 534.38395,70.282721 c -0.20126,0.201256 0.71437,4.157476 2.03474,8.791599 1.32036,4.634124 4.53036,16.52568 7.13333,26.42568 2.64236,10.04981 5.41674,18.5521 6.28146,19.25 1.10212,0.88951 6.41882,1.25 18.43557,1.25 h 16.8868 z M 525.84247,65.893433 c -2.48187,-9.637778 -3.4059,-11.720637 -6.98725,-15.75 -2.26993,-2.553888 -8.34244,-9.437428 -13.49447,-15.296755 -9.02637,-10.265556 -12.70322,-12.940465 -16.61007,-12.083848 -2.03623,0.446465 -3.31116,4.436112 -2.09091,6.543122 C 487.50518,30.76572 528.03569,77 528.46996,77 c 0.12794,0 -1.05443,-4.997955 -2.62749,-11.106567 z M 0,138.65383 c 0,-7.24205 0.30614565,-9.48274 1.25,-9.1488 1.6025231,0.56698 6.7446515,-6.27349 10.68314,-14.21156 C 22.286019,94.427115 18.815122,66.486492 3.0178977,43.526013 0.36517086,39.670407 -0.05871055,38.232161 0.19794287,33.957799 L 0.5,28.927273 l 4,5.021135 c 9.752947,12.242717 17.050731,28.437751 19.596982,43.489065 3.092186,18.278425 -3.051075,40.272647 -15.4797005,55.420717 -2.7541506,3.35677 -4.620963,6.76337 -4.9978239,9.12013 -0.3308568,2.06906 -1.2805853,4.32548 -2.1105077,5.01425 C 0.18152171,148.09424 0,147.09112 0,138.65383 Z M 2.9504148,104.44025 C 1.133089,102.25051 2.8853551,97.5 5.5103865,97.5 c 2.1843421,0 2.9887943,2.374969 2.0591179,6.07909 -0.6943064,2.76634 -2.7238989,3.14473 -4.6190896,0.86116 z M 578.43402,97.593141 C 577.72629,94.773319 579.46255,91 581.4678,91 c 1.78837,0 2.88947,3.440378 2.10344,6.572172 -0.8182,3.259958 -4.3207,3.274258 -5.13722,0.02097 z M 562.17621,80.776206 c -1.6386,-1.638601 -1.47044,-6.287123 0.27999,-7.739851 2.12042,-1.7598 3.5438,-0.394097 3.5438,3.400217 0,3.879794 -2.00648,6.156951 -3.82379,4.339634 z m 21.50598,-4.883528 c -0.81915,-3.132424 0.99231,-7.102012 3.05924,-6.703958 1.99125,0.383481 2.70739,2.886883 1.82807,6.390375 -0.76207,3.036358 -4.11897,3.251745 -4.88731,0.313583 z M 6.919039,74.721655 C 5.6361685,71.906061 7.2481873,67 9.4561971,67 c 2.0340789,0 3.0569789,4.578285 1.6921579,7.573742 -1.3852615,3.040317 -2.8875103,3.092856 -4.229316,0.147913 z M 561.94868,53.365021 c -1.33238,-3.504428 1.35387,-8.188743 3.61822,-6.309498 C 568.18064,49.224736 566.8235,56 563.77525,56 c -0.45361,0 -1.27557,-1.185741 -1.82657,-2.634979 z m 27.98362,-0.491514 c -1.5028,-2.80802 0.33775,-7.158507 2.8287,-6.686161 2.11047,0.400195 2.90194,5.30894 1.18881,7.373126 -1.64577,1.983035 -2.68354,1.805584 -4.01751,-0.686965 z M 537.2,52.8 c -1.71855,-1.718548 -1.48035,-6.322444 0.40821,-7.889808 1.3664,-1.134013 1.81748,-1.048506 3,0.568684 1.82733,2.499023 1.76249,5.007567 -0.17964,6.949695 C 538.54684,54.310302 538.69344,54.293437 537.2,52.8 Z m 29,-22 c -1.69304,-1.693037 -1.49113,-6.313492 0.34238,-7.835174 2.11311,-1.75372 3.78976,0.05828 3.67838,3.975335 C 570.08347,31.769044 568.5965,33.196499 566.2,30.8 Z m -19.7776,-1.141621 c -0.31435,-0.819188 -0.42549,-2.764946 -0.24697,-4.323906 C 546.41127,23.274858 547.04674,22.5 548.5,22.5 c 1.66552,0 2,0.666667 2,3.986305 0,3.004046 -0.43196,4.069493 -1.75302,4.323907 -0.96417,0.18568 -2.01023,-0.332644 -2.32458,-1.151833 z m -24.75573,-5.325046 c -0.83259,-0.832582 -0.86632,-4.649469 -0.0597,-6.751546 0.85861,-2.23751 3.11946,-1.961433 4.46071,0.544706 1.95435,3.651738 -1.74246,8.865409 -4.40103,6.20684 z"
       id="path170" />
  </g>
</svg>
