<svg width="145" height="33" viewBox="0 0 145 33" fill="none" xmlns="http://www.w3.org/2000/svg">
<path d="M8.625 11.95C8.625 11.39 8.26333 11.11 7.54 11.11C6.84 11.11 6.28 11.2383 5.86 11.495V22.135H7.26C8.17 22.135 8.625 21.7617 8.625 21.015V11.95ZM0.575 0.854999H5.86V6.77C6.86333 6.42 8.065 6.245 9.465 6.245C10.865 6.245 11.9617 6.61833 12.755 7.365C13.5717 8.08833 13.98 9.185 13.98 10.655V21.855C13.98 23.605 13.49 24.9 12.51 25.74C11.5533 26.58 10.2583 27 8.625 27H0.575V0.854999ZM24.6862 6.35H29.9712V27H25.0012V26.055C23.8578 26.685 22.5512 27 21.0812 27C19.6345 27 18.5262 26.6033 17.7562 25.81C16.9862 25.0167 16.6012 23.8733 16.6012 22.38V6.35H21.9562V21.33C21.9562 21.9367 22.2945 22.24 22.9712 22.24C23.6478 22.24 24.2195 22.1 24.6862 21.82V6.35ZM42.0391 6.245H42.6341V11.11H41.8291C40.5224 11.11 39.3791 11.3433 38.3991 11.81V27H33.1141V6.35H38.0841V7.75C39.2741 7.02667 40.1024 6.595 40.5691 6.455C41.0591 6.315 41.5491 6.245 42.0391 6.245ZM58.6034 8.625H57.3784C57.1917 8.625 56.935 8.64833 56.6084 8.695C57.0517 9.44167 57.2734 10.375 57.2734 11.495V14.505C57.2734 16.2317 56.7367 17.5733 55.6634 18.53C54.59 19.4867 52.9684 19.9883 50.7984 20.035C50.1917 20.035 49.8884 20.2917 49.8884 20.805C49.8884 21.1083 49.9817 21.3183 50.1684 21.435C50.3784 21.5283 50.7517 21.575 51.2884 21.575H53.2134C55.01 21.575 56.34 21.9367 57.2034 22.66C58.09 23.36 58.5334 24.4683 58.5334 25.985V26.86C58.5334 28.5633 57.915 29.8817 56.6784 30.815C55.4417 31.7717 53.5984 32.25 51.1484 32.25H49.8534C48.36 32.25 47.0417 32.0867 45.8984 31.76C44.755 31.4567 43.9034 31.1067 43.3434 30.71V25.915C43.9967 26.4283 44.9067 26.8717 46.0734 27.245C47.24 27.6417 48.4534 27.84 49.7134 27.84H50.4484C51.6617 27.84 52.49 27.7467 52.9334 27.56C53.4 27.3967 53.6334 27.1167 53.6334 26.72V26.545C53.6334 26.0783 53.2367 25.845 52.4434 25.845H50.3084C48.6284 25.845 47.3684 25.6 46.5284 25.11C45.6884 24.62 45.2684 23.8267 45.2684 22.73V22.17C45.2684 20.7 45.9217 19.8483 47.2284 19.615C44.825 18.8217 43.6234 17.1183 43.6234 14.505V11.495C43.6234 9.745 44.1834 8.39167 45.3034 7.435C46.4467 6.47833 48.1617 6 50.4484 6C51.965 6 53.2367 6.21 54.2634 6.63C54.8 4.83333 56.06 3.935 58.0434 3.935H58.6034V8.625ZM52.0234 14.47V11.53C52.0234 10.62 51.4984 10.165 50.4484 10.165C49.3984 10.165 48.8734 10.62 48.8734 11.53V14.47C48.8734 15.38 49.3984 15.835 50.4484 15.835C51.4984 15.835 52.0234 15.38 52.0234 14.47ZM60.0053 21.12V11.635C60.0053 9.86167 60.5536 8.485 61.6503 7.505C62.7469 6.50167 64.4036 6 66.6203 6C70.8903 6 73.0253 7.87833 73.0253 11.635V18.74H65.0803V20.7C65.0803 21.4 65.2669 21.9017 65.6403 22.205C66.0369 22.485 66.8886 22.625 68.1953 22.625C69.5253 22.625 70.9719 22.3917 72.5353 21.925V26.545C70.9019 26.9883 69.1519 27.21 67.2853 27.21C62.4319 27.21 60.0053 25.18 60.0053 21.12ZM65.0803 14.715H68.1603V11.705C68.1603 10.8183 67.6469 10.375 66.6203 10.375C65.5936 10.375 65.0803 10.8183 65.0803 11.705V14.715ZM84.3877 6.245H84.9827V11.11H84.1777C82.871 11.11 81.7277 11.3433 80.7477 11.81V27H75.4627V6.35H80.4327V7.75C81.6227 7.02667 82.451 6.595 82.9177 6.455C83.4077 6.315 83.8977 6.245 84.3877 6.245ZM89.367 5.755C87.4303 5.755 86.462 4.845 86.462 3.025C86.462 1.18166 87.4303 0.259998 89.367 0.259998C91.327 0.259998 92.307 1.18166 92.307 3.025C92.307 4.845 91.327 5.755 89.367 5.755ZM86.742 6.91H92.027V25.88C92.027 27.7933 91.4903 29.345 90.417 30.535C89.367 31.7483 87.8153 32.355 85.762 32.355C85.2253 32.355 84.8053 32.3083 84.502 32.215V27.385C84.8753 27.4317 85.1437 27.455 85.307 27.455C86.2637 27.455 86.742 26.93 86.742 25.88V6.91ZM102.954 11.81C102.954 10.9233 102.464 10.48 101.484 10.48C100.504 10.48 100.014 10.9233 100.014 11.81V21.54C100.014 22.4267 100.504 22.87 101.484 22.87C102.464 22.87 102.954 22.4267 102.954 21.54V11.81ZM94.8344 11.635C94.8344 9.86167 95.3827 8.485 96.4794 7.505C97.5994 6.50167 99.2677 6 101.484 6C103.701 6 105.358 6.50167 106.454 7.505C107.574 8.485 108.134 9.86167 108.134 11.635V21.715C108.134 23.4883 107.574 24.8767 106.454 25.88C105.358 26.86 103.701 27.35 101.484 27.35C99.2677 27.35 97.5994 26.86 96.4794 25.88C95.3827 24.8767 94.8344 23.4883 94.8344 21.715V11.635ZM113.566 5.755C111.63 5.755 110.661 4.845 110.661 3.025C110.661 1.18166 111.63 0.259998 113.566 0.259998C115.526 0.259998 116.506 1.18166 116.506 3.025C116.506 4.845 115.526 5.755 113.566 5.755ZM110.941 6.91H116.226V27H110.941V6.91ZM124.354 7.26C125.59 6.58333 126.874 6.245 128.204 6.245C129.534 6.245 130.595 6.61833 131.389 7.365C132.205 8.08833 132.614 9.185 132.614 10.655V27H127.259V11.95C127.259 11.39 126.955 11.11 126.349 11.11C125.742 11.11 125.182 11.2617 124.669 11.565V27H119.384V6.35H124.354V7.26ZM142.655 22.555C143.378 22.555 144.043 22.3917 144.65 22.065V26.755C143.856 27.1283 142.818 27.315 141.535 27.315C139.551 27.315 138.14 26.8483 137.3 25.915C136.46 24.9817 136.04 23.6283 136.04 21.855V10.795H134.185V6.35H136.285L137.895 2.78H141.325V6.35H144.44V10.795H141.325V21.295C141.325 22.135 141.768 22.555 142.655 22.555Z" fill="#202020"/>
</svg>
